<svg width="58" height="50" viewBox="0 0 58 50" fill="none" xmlns="http://www.w3.org/2000/svg">
<path fill-rule="evenodd" clip-rule="evenodd" d="M9.87839 38.125C10.0609 37.9327 10.2814 37.7783 10.5267 37.6709C10.772 37.5635 11.0371 37.5053 11.306 37.5H56.1615C56.3513 37.5026 56.5363 37.5585 56.6942 37.6609C56.8521 37.7634 56.9762 37.9081 57.0516 38.0775C57.127 38.247 57.1505 38.434 57.1192 38.6162C57.0879 38.7983 57.0032 38.9678 56.8753 39.1042L47.3674 49.375C47.1849 49.5673 46.9644 49.7217 46.7191 49.8291C46.4738 49.9365 46.2088 49.9946 45.9398 50H1.05577C0.865981 49.9974 0.681007 49.9415 0.523096 49.8391C0.365186 49.7366 0.241063 49.5919 0.165658 49.4225C0.0902535 49.253 0.066778 49.066 0.0980555 48.8838C0.129333 48.7017 0.214031 48.5322 0.341963 48.3958L9.87839 38.125ZM56.9181 29.6111C57.0461 29.7475 57.1308 29.917 57.162 30.0991C57.1933 30.2813 57.1698 30.4683 57.0944 30.6378C57.019 30.8072 56.8949 30.9519 56.737 31.0543C56.5791 31.1568 56.3941 31.2127 56.2043 31.2153L11.3346 31.25C11.0656 31.2446 10.8005 31.1865 10.5552 31.0791C10.3099 30.9717 10.0894 30.8173 9.90695 30.625L0.327687 20.3889C0.199755 20.2525 0.115057 20.083 0.0837794 19.9009C0.0525019 19.7187 0.0759774 19.5317 0.151382 19.3622C0.226787 19.1928 0.35091 19.0481 0.50882 18.9457C0.666731 18.8432 0.851704 18.7873 1.04149 18.7847L45.9113 18.75C46.1802 18.7553 46.4453 18.8135 46.6906 18.9209C46.9359 19.0283 47.1564 19.1827 47.3389 19.375L56.9181 29.6111ZM9.87839 0.625C10.0609 0.432718 10.2814 0.278252 10.5267 0.170857C10.772 0.0634628 11.0371 0.0053497 11.306 0L56.19 0.0347222C56.3798 0.0373227 56.5648 0.0932117 56.7227 0.195667C56.8806 0.298122 57.0047 0.44278 57.0802 0.612241C57.1556 0.781701 57.179 0.968748 57.1478 1.15088C57.1165 1.33301 57.0318 1.50248 56.9039 1.63889L47.3674 11.875C47.1849 12.0673 46.9644 12.2217 46.7191 12.3291C46.4738 12.4365 46.2088 12.4946 45.9398 12.5H1.05577C0.865981 12.4974 0.681007 12.4415 0.523096 12.3391C0.365186 12.2366 0.241063 12.0919 0.165658 11.9225C0.0902535 11.753 0.066778 11.566 0.0980555 11.3838C0.129333 11.2017 0.214031 11.0322 0.341963 10.8958L9.87839 0.625Z" fill="url(#paint0_linear_5_38)"/>
<defs>
<linearGradient id="paint0_linear_5_38" x1="1.80526" y1="51.0903" x2="53.9661" y2="-2.52474" gradientUnits="userSpaceOnUse">
<stop stop-color="#9945FF"/>
<stop offset="0.14" stop-color="#8A53F4"/>
<stop offset="0.42" stop-color="#6377D6"/>
<stop offset="0.79" stop-color="#24B0A7"/>
<stop offset="0.99" stop-color="#00D18C"/>
<stop offset="1" stop-color="#00D18C"/>
</linearGradient>
</defs>
</svg>
