<svg width="60" height="60" viewBox="0 0 52 48" fill="none" xmlns="http://www.w3.org/2000/svg">
  <path fill-rule="evenodd" clip-rule="evenodd" d="M9.10574 36.1498C9.28708 35.9446 9.51441 35.7852 9.76916 35.6846C10.0239 35.5841 10.2988 35.5452 10.5715 35.5713H50.84C51.0084 35.5744 51.1724 35.6255 51.3128 35.7184C51.4533 35.8113 51.5644 35.9423 51.6332 36.096C51.7019 36.2497 51.7255 36.4198 51.7012 36.5864C51.6769 36.7531 51.6056 36.9093 51.4957 37.037L42.8943 46.5256C42.7169 46.7378 42.4913 46.9045 42.2363 47.0119C41.9813 47.1192 41.7044 47.1641 41.4286 47.1427H1.16003C0.991655 47.1395 0.827662 47.0885 0.687213 46.9956C0.546765 46.9027 0.435663 46.7717 0.366894 46.618C0.298124 46.4643 0.274528 46.2942 0.298862 46.1275C0.323196 45.9609 0.394456 45.8046 0.504313 45.677L9.10574 36.1498ZM51.5343 28.4356C51.6442 28.5632 51.7154 28.7195 51.7398 28.8861C51.7641 29.0527 51.7405 29.2228 51.6717 29.3766C51.603 29.5303 51.4919 29.6613 51.3514 29.7542C51.211 29.8471 51.047 29.8981 50.8786 29.9013H10.5715C10.3243 29.9038 10.0794 29.8535 9.85323 29.7537C9.62706 29.6539 9.42481 29.507 9.26003 29.3227L0.504313 19.7184C0.394456 19.5908 0.323196 19.4345 0.298862 19.2679C0.274528 19.1012 0.298124 18.9311 0.366894 18.7774C0.435663 18.6237 0.546765 18.4927 0.687213 18.3998C0.827662 18.3069 0.991655 18.2559 1.16003 18.2527H41.4286C41.6758 18.2502 41.9207 18.3005 42.1468 18.4003C42.373 18.5001 42.5752 18.647 42.74 18.8313L51.5343 28.4356ZM9.10574 1.43555C9.28708 1.23032 9.51441 1.07091 9.76916 0.970352C10.0239 0.869796 10.2988 0.830947 10.5715 0.856982H50.84C51.0084 0.860146 51.1724 0.911167 51.3128 1.00408C51.4533 1.097 51.5644 1.22797 51.6332 1.38169C51.7019 1.53541 51.7255 1.70553 51.7012 1.87216C51.6769 2.0388 51.6056 2.19506 51.4957 2.3227L42.8943 11.8498C42.713 12.0551 42.4856 12.2145 42.2309 12.315C41.9762 12.4156 41.7012 12.4544 41.4286 12.4284H1.16003C0.991655 12.4252 0.827662 12.3742 0.687213 12.2813C0.546765 12.1884 0.435663 12.0574 0.366894 11.9037C0.298124 11.75 0.274528 11.5799 0.298862 11.4132C0.323196 11.2466 0.394456 11.0903 0.504313 10.9627L9.10574 1.43555Z" fill="black"/>
</svg>